<?xml version="1.0" encoding="utf-8"?>
<!-- Generator: Adobe Illustrator 26.0.2, SVG Export Plug-In . SVG Version: 6.00 Build 0)  -->
<svg version="1.1"
	 id="svg3430" xmlns:cc="http://creativecommons.org/ns#" xmlns:dc="http://purl.org/dc/elements/1.1/" xmlns:rdf="http://www.w3.org/1999/02/22-rdf-syntax-ns#" xmlns:svg="http://www.w3.org/2000/svg"
	 xmlns="http://www.w3.org/2000/svg" xmlns:xlink="http://www.w3.org/1999/xlink" x="0px" y="0px" viewBox="0 0 711.2 383.6"
	 style="enable-background:new 0 0 711.2 383.6;" xml:space="preserve">
<style type="text/css">
	.st0{fill:none;}
	.st1{fill:#FFFFFF;}
</style>
<g id="g3438" transform="matrix(1.25,0,0,-1.25,-4.4,394.29875)">
	<path class="st0" d="M11.5,162C11.5,81.7,135.3,16.6,288,16.6l0,0c152.7,0,276.5,65.1,276.5,145.4l0,0
		c0,80.3-123.8,145.4-276.5,145.4l0,0C135.3,307.4,11.5,242.3,11.5,162"/>
	<g>
		<path class="st1" d="M176,200.3h-19.3l-10.7-55h15.7c12.1,0,21.1,2.2,26.8,6.6c5.6,4.3,9.5,11.9,11.6,22.4
			c1.9,9.8,1.2,16.7-2.2,20.3C194.5,198.4,187.2,200.3,176,200.3z"/>
		<path class="st1" d="M423.8,200.3h-19.3l-10.7-55h15.7c12.1,0,21.1,2.2,26.8,6.6c5.6,4.3,9.5,11.9,11.6,22.4
			c1.9,9.8,1.2,16.7-2.2,20.3C442.3,198.4,435,200.3,423.8,200.3z"/>
		<path class="st1" d="M288,307.4c-152.7,0-276.5-65.1-276.5-145.4C11.5,81.7,135.3,16.6,288,16.6S564.5,81.7,564.5,162
			C564.5,242.3,440.7,307.4,288,307.4z M217.9,133.6c-6.6-6.2-14.1-10.7-22.2-13.3c-8-2.6-18.3-3.9-30.5-3.9h-24.7L133.4,80
			c-0.3-1.4-1.5-2.4-2.9-2.4H98.7c-0.9,0-1.7,0.4-2.3,1.1c-0.6,0.7-0.8,1.6-0.6,2.5l28.3,145.8c0.3,1.4,1.5,2.4,2.9,2.4h61.1
			c19.2,0,33.5-5.2,42.4-15.5c9-10.3,11.8-24.8,8.3-42.9c-1.4-7.4-3.9-14.3-7.3-20.4C228,144.3,223.5,138.6,217.9,133.6z
			 M309.3,117.4c-0.6,0.7-0.8,1.6-0.6,2.5l12.5,64.5c1.2,6.1,0.9,10.5-0.8,12.4c-1.1,1.1-4.2,3-13.6,3H284l-15.8-81.1
			c-0.3-1.4-1.5-2.4-2.9-2.4h-31.5c-0.9,0-1.7,0.4-2.3,1.1c-0.6,0.7-0.8,1.6-0.6,2.5l28.3,145.8c0.3,1.4,1.5,2.4,2.9,2.4h31.5
			c0.9,0,1.7-0.4,2.3-1.1c0.6-0.7,0.8-1.6,0.6-2.5l-6.8-35.2h24.4c18.6,0,31.2-3.3,38.6-10c7.5-6.9,9.8-17.9,6.9-32.7l-13.2-67.8
			c-0.3-1.4-1.5-2.4-2.9-2.4h-32C310.7,116.3,309.8,116.7,309.3,117.4z M486.6,170.9c-1.4-7.4-3.9-14.3-7.3-20.4
			c-3.4-6.2-8-11.8-13.5-16.9c-6.6-6.2-14.1-10.7-22.2-13.3c-8-2.6-18.3-3.9-30.5-3.9h-24.7L381.2,80c-0.3-1.4-1.5-2.4-2.9-2.4
			h-31.8c-0.9,0-1.7,0.4-2.3,1.1c-0.6,0.7-0.8,1.6-0.6,2.5l28.3,145.8c0.3,1.4,1.5,2.4,2.9,2.4h61.1c19.2,0,33.5-5.2,42.4-15.5
			C487.3,203.5,490.1,189,486.6,170.9z"/>
	</g>
</g>
</svg>
